<?xml version="1.0" encoding="UTF-8" standalone="no"?><!DOCTYPE svg PUBLIC "-//W3C//DTD SVG 1.1//EN" "http://www.w3.org/Graphics/SVG/1.1/DTD/svg11.dtd"><svg width="100%" height="100%" viewBox="0 0 800 800" version="1.1" xmlns="http://www.w3.org/2000/svg" xmlns:xlink="http://www.w3.org/1999/xlink" xml:space="preserve" xmlns:serif="http://www.serif.com/" style="fill-rule:evenodd;clip-rule:evenodd;stroke-linejoin:round;stroke-miterlimit:2;"><path d="M400,0c18.286,-0 33.333,15.047 33.333,33.333l0,133.334c0,18.286 -15.047,33.333 -33.333,33.333c-18.286,0 -33.333,-15.047 -33.333,-33.333l-0,-133.334c-0,-18.286 15.047,-33.333 33.333,-33.333Zm-235.7,117.167c-6.212,-6.001 -14.52,-9.357 -23.157,-9.357c-18.286,-0 -33.333,15.047 -33.333,33.333c-0,8.637 3.356,16.945 9.357,23.157l94.266,94.267c6.213,6 14.52,9.357 23.157,9.357c18.287,-0 33.334,-15.047 33.334,-33.334c-0,-8.637 -3.357,-16.944 -9.357,-23.157l-94.234,-94.266l-0.033,-0Zm-130.967,249.5c-18.286,-0 -33.333,15.047 -33.333,33.333c0,18.286 15.047,33.333 33.333,33.333l133.334,0c18.286,0 33.333,-15.047 33.333,-33.333c0,-18.286 -15.047,-33.333 -33.333,-33.333l-133.334,-0Zm566.667,33.333c0,-18.286 15.047,-33.333 33.333,-33.333l133.334,-0c18.286,-0 33.333,15.047 33.333,33.333c0,18.286 -15.047,33.333 -33.333,33.333l-133.334,0c-18.286,0 -33.333,-15.047 -33.333,-33.333Zm-11.433,141.433c-6.213,-6 -14.52,-9.357 -23.157,-9.357c-18.287,0 -33.334,15.047 -33.334,33.334c0,8.637 3.357,16.944 9.357,23.157l94.267,94.266c6.279,6.501 14.939,10.177 23.976,10.177c18.286,-0 33.334,-15.048 33.334,-33.334c-0,-9.037 -3.676,-17.697 -10.177,-23.976l-94.266,-94.267Zm-330,47.134c6.5,-6.279 10.176,-14.939 10.176,-23.977c-0,-18.286 -15.047,-33.333 -33.333,-33.333c-9.038,0 -17.698,3.676 -23.977,10.176l-94.266,94.234c-6.501,6.278 -10.177,14.938 -10.177,23.976c0,18.286 15.048,33.333 33.334,33.333c9.037,0 17.697,-3.675 23.976,-10.176l94.267,-94.267l-0,0.034Zm424.266,-424.267c6.001,-6.212 9.357,-14.52 9.357,-23.157c0,-18.286 -15.047,-33.333 -33.333,-33.333c-8.637,-0 -16.945,3.356 -23.157,9.357l-94.267,94.266c-6.5,6.279 -10.176,14.939 -10.176,23.977c0,18.286 15.047,33.333 33.333,33.333c9.038,-0 17.698,-3.676 23.977,-10.176l94.266,-94.267Zm-249.5,469.033c0,-18.286 -15.047,-33.333 -33.333,-33.333c-18.286,-0 -33.333,15.047 -33.333,33.333l-0,133.334c-0,18.286 15.047,33.333 33.333,33.333c18.286,-0 33.333,-15.047 33.333,-33.333l0,-133.334Zm-33.333,-400c-91.431,0 -166.667,75.236 -166.667,166.667c0,91.431 75.236,166.667 166.667,166.667c91.431,-0 166.667,-75.236 166.667,-166.667c-0,-91.431 -75.236,-166.667 -166.667,-166.667Z" style="fill:#fff;fill-rule:nonzero;"/></svg>