<?xml version="1.0" encoding="UTF-8" standalone="no"?><!DOCTYPE svg PUBLIC "-//W3C//DTD SVG 1.1//EN" "http://www.w3.org/Graphics/SVG/1.1/DTD/svg11.dtd"><svg width="100%" height="100%" viewBox="0 0 800 800" version="1.1" xmlns="http://www.w3.org/2000/svg" xmlns:xlink="http://www.w3.org/1999/xlink" xml:space="preserve" xmlns:serif="http://www.serif.com/" style="fill-rule:evenodd;clip-rule:evenodd;stroke-linejoin:round;stroke-miterlimit:2;"><path d="M19.604,387.522c0,217.045 175.949,392.992 392.992,392.992c165.365,-0 306.871,-102.141 364.879,-246.77c5.859,-14.608 2.437,-31.302 -8.696,-42.427c-11.133,-11.126 -27.83,-14.536 -42.434,-8.667c-36.212,14.554 -75.835,22.765 -117.253,22.765c-173.636,0 -314.393,-140.757 -314.393,-314.393c-0,-41.24 8.079,-81.109 22.509,-117.198c5.84,-14.608 2.406,-31.292 -8.729,-42.406c-11.136,-11.113 -27.826,-14.515 -42.423,-8.646c-144.462,58.087 -246.452,199.508 -246.452,364.75Zm78.599,-0c-0,-100.841 47.473,-190.594 121.289,-248.128c-2.233,16.935 -3.391,34.183 -3.391,51.628c-0,217.045 175.946,392.992 392.991,392.992c17.502,-0 34.748,-1.171 51.66,-3.424c-57.532,73.836 -147.298,121.325 -248.156,121.325c-173.634,0 -314.393,-140.757 -314.393,-314.393Z" style="fill:#373737;"/></svg>